<?xml version="1.0" encoding="utf-8"?>
<!-- Generator: Adobe Illustrator 17.0.0, SVG Export Plug-In . SVG Version: 6.00 Build 0)  -->
<!DOCTYPE svg PUBLIC "-//W3C//DTD SVG 1.1//EN" "http://www.w3.org/Graphics/SVG/1.1/DTD/svg11.dtd">
<svg version="1.1" id="图层_1" xmlns="http://www.w3.org/2000/svg" xmlns:xlink="http://www.w3.org/1999/xlink" x="0px" y="0px"
	 width="22px" height="22px" viewBox="0 0 22 22" enable-background="new 0 0 22 22" xml:space="preserve">
<g>
	<path fill="#FFFFFF" d="M16.94,7.25h-6.545c-1.136,0-2.06-0.953-2.06-2.125S9.258,3,10.394,3h6.545C18.076,3.001,19,3.954,19,5.126
		S18.076,7.25,16.94,7.25z M10.394,4.001c-0.601,0-1.091,0.505-1.091,1.125s0.489,1.125,1.091,1.125h6.545
		c0.601,0,1.091-0.505,1.091-1.125s-0.489-1.125-1.091-1.125C16.94,4.001,10.394,4.001,10.394,4.001z"/>
	<path fill="#FFFFFF" d="M16.94,18.999h-6.545c-1.136,0-2.06-0.953-2.06-2.125s0.924-2.125,2.06-2.125h6.545
		c1.136,0,2.06,0.953,2.06,2.125S18.076,18.999,16.94,18.999z M10.394,15.75c-0.601,0-1.091,0.505-1.091,1.125
		c0,0.62,0.489,1.125,1.091,1.125h6.545c0.601,0,1.091-0.505,1.091-1.125c0-0.62-0.489-1.125-1.091-1.125H10.394z"/>
	<path fill="#FFFFFF" d="M16.94,13.249h-6.545c-1.136,0-2.06-0.953-2.06-2.125s0.924-2.125,2.06-2.125h6.545
		C18.076,9,19,9.953,19,11.125S18.076,13.249,16.94,13.249z M10.394,10c-0.601,0-1.091,0.505-1.091,1.125
		c0,0.62,0.489,1.125,1.091,1.125h6.545c0.601,0,1.091-0.505,1.091-1.125c0-0.62-0.489-1.125-1.091-1.125H10.394z"/>
	<path fill="#FFFFFF" d="M5.303,7.25H5.06C3.924,7.25,3,6.297,3,5.126s0.924-2.125,2.06-2.125h0.242
		c1.137,0,2.061,0.953,2.061,2.125S6.439,7.25,5.303,7.25z M5.06,4.001c-0.601,0-1.091,0.505-1.091,1.125S4.459,6.251,5.06,6.251
		h0.242c0.601,0,1.091-0.505,1.091-1.125S5.904,4.001,5.303,4.001C5.303,4.001,5.06,4.001,5.06,4.001z"/>
	<path fill="#FFFFFF" d="M5.303,18.999H5.06c-1.136,0-2.06-0.953-2.06-2.125s0.924-2.125,2.06-2.125h0.242
		c1.137,0.001,2.061,0.954,2.061,2.125C7.364,18.046,6.439,18.999,5.303,18.999z M5.06,15.75c-0.601,0-1.091,0.505-1.091,1.125
		C3.969,17.495,4.459,18,5.06,18h0.242c0.601,0,1.091-0.505,1.091-1.125c0-0.62-0.489-1.125-1.091-1.125H5.06z"/>
	<path fill="#FFFFFF" d="M5.303,13.249H5.06c-1.136,0-2.06-0.953-2.06-2.124S3.924,9,5.06,9h0.242c1.137,0,2.061,0.953,2.061,2.125
		S6.439,13.249,5.303,13.249z M5.06,10c-0.601,0-1.091,0.505-1.091,1.125c0,0.62,0.489,1.125,1.091,1.125h0.242
		c0.601,0,1.091-0.505,1.091-1.125c0-0.62-0.489-1.125-1.091-1.125H5.06z"/>
</g>
</svg>
