<?xml version="1.0" encoding="utf-8"?>
<!-- Generator: Adobe Illustrator 17.0.0, SVG Export Plug-In . SVG Version: 6.00 Build 0)  -->
<!DOCTYPE svg PUBLIC "-//W3C//DTD SVG 1.1//EN" "http://www.w3.org/Graphics/SVG/1.1/DTD/svg11.dtd">
<svg version="1.1" id="图层_1" xmlns="http://www.w3.org/2000/svg" xmlns:xlink="http://www.w3.org/1999/xlink" x="0px" y="0px"
	 width="22px" height="22px" viewBox="0 0 22 22" enable-background="new 0 0 22 22" xml:space="preserve">
<rect opacity="0" fill-rule="evenodd" clip-rule="evenodd" fill="#0000FF" width="22" height="22"/>
<g>
	<path fill="#00DA73" d="M10.813,17.366c-0.312,0-0.61-0.154-0.816-0.424l-5.698-7.44c-0.372-0.485-0.39-1.259-0.042-1.761
		l1.637-2.319C6.205,4.974,6.896,4.634,7.5,4.634h6.623c0.604,0,1.295,0.34,1.609,0.791l1.633,2.329
		c0.353,0.508,0.335,1.26-0.04,1.751l-5.699,7.441C11.42,17.213,11.124,17.366,10.813,17.366z M7.5,5.431
		c-0.334,0-0.771,0.207-0.935,0.443L4.928,8.192C4.776,8.412,4.785,8.81,4.95,9.024l5.699,7.44c0.102,0.133,0.224,0.135,0.326,0.003
		l5.699-7.441c0.165-0.215,0.174-0.6,0.019-0.823l-1.633-2.329c-0.165-0.237-0.602-0.443-0.936-0.443H7.5z"/>
	<path fill="#00DA73" d="M17.272,8.819H4.859c-0.112,0-0.204-0.089-0.204-0.199c0-0.11,0.091-0.199,0.204-0.199h12.414
		c0.112,0,0.203,0.089,0.203,0.199C17.476,8.73,17.385,8.819,17.272,8.819z"/>
	<path fill="#00DA73" d="M10.489,8.744c-0.049,0-0.098-0.017-0.137-0.052L6.592,5.33c-0.083-0.074-0.089-0.2-0.013-0.281
		c0.076-0.082,0.204-0.087,0.288-0.013l3.76,3.362c0.083,0.074,0.089,0.2,0.013,0.281C10.599,8.722,10.544,8.744,10.489,8.744z"/>
	<path fill="#00DA73" d="M10.811,16.849c-0.024,0-0.049-0.004-0.074-0.013c-0.105-0.04-0.157-0.155-0.116-0.258l3.143-7.942
		c0.041-0.103,0.159-0.154,0.263-0.114c0.105,0.04,0.157,0.155,0.116,0.258l-3.143,7.942C10.97,16.801,10.893,16.849,10.811,16.849z
		"/>
	<path fill="#00DA73" d="M14.708,4.974c-0.046-0.002-0.094,0.014-0.133,0.049l-3.738,3.36c-0.082,0.074-0.094,0.206-0.026,0.295
		c0.068,0.089,0.19,0.101,0.272,0.026l3.738-3.36c0.083-0.074,0.094-0.206,0.026-0.295C14.812,5.002,14.76,4.976,14.708,4.974z"/>
	<path fill="#00DA73" d="M7.722,8.581c-0.024,0-0.049,0.004-0.073,0.013C7.545,8.635,7.494,8.75,7.534,8.853l3.107,7.942
		c0.04,0.103,0.157,0.154,0.26,0.114c0.104-0.04,0.155-0.155,0.115-0.258L7.909,8.709C7.878,8.63,7.802,8.581,7.722,8.581z"/>
</g>
</svg>
