<?xml version="1.0" encoding="utf-8"?>
<!-- Generator: Adobe Illustrator 17.0.0, SVG Export Plug-In . SVG Version: 6.00 Build 0)  -->
<!DOCTYPE svg PUBLIC "-//W3C//DTD SVG 1.1//EN" "http://www.w3.org/Graphics/SVG/1.1/DTD/svg11.dtd">
<svg version="1.1" id="图层_1" xmlns="http://www.w3.org/2000/svg" xmlns:xlink="http://www.w3.org/1999/xlink" x="0px" y="0px"
	 width="22px" height="22px" viewBox="0 0 22 22" enable-background="new 0 0 22 22" xml:space="preserve">
<rect opacity="0" fill-rule="evenodd" clip-rule="evenodd" fill="#0000FF" width="22" height="22"/>
<g>
	<path fill="#00DA73" d="M9.144,17.746c-0.067,0-0.134-0.016-0.196-0.049c-0.14-0.075-0.227-0.224-0.222-0.384l0.041-1.571h-1.05
		c-0.8,0-1.371-0.664-1.371-1.481V8.747c0-0.796,0.571-1.444,1.371-1.444h8.403c0.8,0,1.531,0.648,1.531,1.444v5.514
		c0,0.817-0.731,1.481-1.531,1.481h-4.067l-2.665,1.925C9.315,17.72,9.23,17.746,9.144,17.746z M7.716,8.147
		c-0.344,0-0.534,0.263-0.534,0.6v5.514c0,0.346,0.201,0.637,0.534,0.637h1.48c0.113,0,0.221,0.046,0.3,0.127
		c0.079,0.082,0.122,0.192,0.119,0.306l-0.03,1.155l2.089-1.509c0.071-0.052,0.156-0.079,0.244-0.079h4.202
		c0.333,0,0.694-0.292,0.694-0.637V8.747c0-0.336-0.349-0.6-0.694-0.6H7.716z"/>
	<path fill="#00DA73" d="M4.708,12.24c-0.099,0-0.158-0.035-0.238-0.106c-0.306-0.273-0.428-0.632-0.428-1.038V5.582
		c0-0.796,0.571-1.444,1.371-1.444h8.403c0.8,0,1.531,0.648,1.531,1.444v0.244c0,0.233-0.188,0.422-0.419,0.422
		c-0.231,0-0.419-0.189-0.419-0.422V5.582c0-0.336-0.349-0.6-0.694-0.6H5.413c-0.344,0-0.534,0.264-0.534,0.6v5.514
		c0,0.162,0.021,0.294,0.146,0.406c0.173,0.155,0.169,0.421,0.016,0.596C4.958,12.192,4.823,12.24,4.708,12.24z"/>
	<path fill="#00DA73" d="M10.452,10.046H8.778c-0.116,0-0.209-0.094-0.209-0.211c0-0.117,0.094-0.211,0.209-0.211h1.675
		c0.116,0,0.209,0.094,0.209,0.211C10.662,9.951,10.568,10.046,10.452,10.046z"/>
	<path fill="#00DA73" d="M13.384,10.046H11.29c-0.116,0-0.209-0.094-0.209-0.211c0-0.117,0.094-0.211,0.209-0.211h2.094
		c0.116,0,0.209,0.094,0.209,0.211C13.593,9.951,13.499,10.046,13.384,10.046z"/>
	<path fill="#00DA73" d="M15.058,10.046h-0.837c-0.116,0-0.209-0.094-0.209-0.211c0-0.117,0.094-0.211,0.209-0.211h0.837
		c0.116,0,0.209,0.094,0.209,0.211C15.268,9.951,15.174,10.046,15.058,10.046z"/>
	<path fill="#00DA73" d="M9.615,11.101H8.778c-0.116,0-0.209-0.094-0.209-0.211s0.094-0.211,0.209-0.211h0.837
		c0.116,0,0.209,0.094,0.209,0.211S9.731,11.101,9.615,11.101z"/>
	<path fill="#00DA73" d="M12.127,11.101h-1.675c-0.116,0-0.209-0.094-0.209-0.211s0.094-0.211,0.209-0.211h1.675
		c0.116,0,0.209,0.094,0.209,0.211S12.243,11.101,12.127,11.101z"/>
	<path fill="#00DA73" d="M15.058,11.101h-2.094c-0.116,0-0.209-0.094-0.209-0.211s0.094-0.211,0.209-0.211h2.094
		c0.116,0,0.209,0.094,0.209,0.211S15.174,11.101,15.058,11.101z"/>
	<path fill="#00DA73" d="M10.871,12.366H8.778c-0.116,0-0.209-0.094-0.209-0.211c0-0.117,0.094-0.211,0.209-0.211h2.094
		c0.116,0,0.209,0.094,0.209,0.211C11.081,12.272,10.987,12.366,10.871,12.366z"/>
	<path fill="#00DA73" d="M13.802,12.366h-2.094c-0.116,0-0.209-0.094-0.209-0.211c0-0.117,0.094-0.211,0.209-0.211h2.094
		c0.116,0,0.209,0.094,0.209,0.211C14.012,12.272,13.918,12.366,13.802,12.366z"/>
	<path fill="#00DA73" d="M15.058,12.366H14.64c-0.116,0-0.209-0.094-0.209-0.211c0-0.117,0.094-0.211,0.209-0.211h0.419
		c0.116,0,0.209,0.094,0.209,0.211C15.268,12.272,15.174,12.366,15.058,12.366z"/>
	<path fill="#00DA73" d="M9.615,13.421H8.778c-0.116,0-0.209-0.094-0.209-0.211c0-0.117,0.094-0.211,0.209-0.211h0.837
		c0.116,0,0.209,0.094,0.209,0.211C9.824,13.327,9.731,13.421,9.615,13.421z"/>
	<path fill="#00DA73" d="M11.918,13.421h-1.466c-0.116,0-0.209-0.094-0.209-0.211c0-0.117,0.094-0.211,0.209-0.211h1.466
		c0.116,0,0.209,0.094,0.209,0.211C12.127,13.327,12.034,13.421,11.918,13.421z"/>
</g>
</svg>
