<?xml version="1.0" encoding="utf-8"?>
<!-- Generator: Adobe Illustrator 17.0.0, SVG Export Plug-In . SVG Version: 6.00 Build 0)  -->
<!DOCTYPE svg PUBLIC "-//W3C//DTD SVG 1.1//EN" "http://www.w3.org/Graphics/SVG/1.1/DTD/svg11.dtd">
<svg version="1.1" id="图层_1" xmlns="http://www.w3.org/2000/svg" xmlns:xlink="http://www.w3.org/1999/xlink" x="0px" y="0px"
	 width="22px" height="22px" viewBox="0 0 22 22" enable-background="new 0 0 22 22" xml:space="preserve">
<g>
	<path fill="#02864A" d="M3.206,19.436c-0.138,0-0.273-0.055-0.373-0.155l-0.115-0.115c-0.13-0.13-0.183-0.319-0.14-0.499
		c0.16-0.658,0.998-3.982,1.815-4.8L14.971,3.265c0.451-0.452,1.057-0.701,1.707-0.701c0.687,0,1.339,0.274,1.835,0.771l0.115,0.115
		c0.472,0.473,0.765,1.127,0.804,1.795c0.042,0.71-0.193,1.359-0.661,1.828L8.192,17.675c-0.82,0.822-4.203,1.601-4.873,1.749
		C3.281,19.432,3.243,19.436,3.206,19.436z M16.678,3.621c-0.368,0-0.709,0.139-0.961,0.391L5.139,14.615
		c-0.384,0.385-0.968,2.161-1.359,3.616c1.478-0.364,3.285-0.92,3.667-1.303L18.024,6.325c0.252-0.253,0.378-0.615,0.354-1.019
		c-0.024-0.413-0.205-0.817-0.497-1.11l-0.115-0.115C17.47,3.785,17.083,3.621,16.678,3.621z"/>
	<path fill="#02864A" d="M17.579,7.346c-0.067,0-0.135-0.026-0.186-0.077l-2.835-2.842c-0.103-0.103-0.103-0.27,0-0.374
		c0.103-0.103,0.27-0.103,0.373,0l2.835,2.842c0.103,0.103,0.103,0.27,0,0.374C17.714,7.32,17.647,7.346,17.579,7.346z"/>
	<path fill="#02864A" d="M7.983,16.965c-0.067,0-0.135-0.026-0.186-0.077l-2.835-2.842c-0.103-0.103-0.103-0.27,0-0.374
		c0.103-0.103,0.27-0.103,0.373,0l2.835,2.842c0.103,0.103,0.103,0.271,0,0.374C8.118,16.939,8.05,16.965,7.983,16.965z"/>
	<path fill="#02864A" d="M5.909,18.321c-0.067,0-0.135-0.026-0.186-0.077l-1.816-1.821c-0.103-0.103-0.103-0.27,0-0.374
		c0.103-0.103,0.27-0.103,0.373,0l1.816,1.821c0.103,0.103,0.103,0.27,0,0.374C6.044,18.296,5.977,18.321,5.909,18.321z"/>
	<path fill="#02864A" d="M6.238,15.216c-0.067,0-0.135-0.026-0.186-0.077c-0.103-0.103-0.103-0.27,0-0.374l7.852-7.87
		c0.103-0.103,0.27-0.103,0.373,0c0.103,0.103,0.103,0.27,0,0.374l-7.852,7.87C6.373,15.19,6.306,15.216,6.238,15.216z"/>
	<path fill="#02864A" d="M14.853,6.581c-0.067,0-0.135-0.026-0.186-0.077c-0.103-0.103-0.103-0.27,0-0.374l0.981-0.984
		c0.103-0.103,0.27-0.103,0.373,0c0.103,0.103,0.103,0.27,0,0.374L15.04,6.503C14.988,6.555,14.921,6.581,14.853,6.581z"/>
	<path fill="#02864A" d="M7.111,16.09c-0.067,0-0.135-0.026-0.186-0.077c-0.103-0.103-0.103-0.27,0-0.374L16.52,6.02
		c0.103-0.103,0.27-0.103,0.373,0c0.103,0.103,0.103,0.271,0,0.374l-9.596,9.619C7.245,16.064,7.178,16.09,7.111,16.09z"/>
</g>
</svg>
