<?xml version="1.0" encoding="utf-8"?>
<!-- Generator: Adobe Illustrator 17.0.0, SVG Export Plug-In . SVG Version: 6.00 Build 0)  -->
<!DOCTYPE svg PUBLIC "-//W3C//DTD SVG 1.1//EN" "http://www.w3.org/Graphics/SVG/1.1/DTD/svg11.dtd">
<svg version="1.1" id="图层_1" xmlns="http://www.w3.org/2000/svg" xmlns:xlink="http://www.w3.org/1999/xlink" x="0px" y="0px"
	 width="22px" height="22px" viewBox="0 0 22 22" enable-background="new 0 0 22 22" xml:space="preserve">
<rect opacity="0" fill-rule="evenodd" clip-rule="evenodd" fill="#0000FF" width="22" height="22"/>
<g>
	<path fill="#FF7452" d="M8.577,16.485c0,0.956-0.759,1.731-1.694,1.731H4.65c-0.936,0-1.694-0.775-1.694-1.731v-5.526
		c0-0.956,0.759-1.73,1.694-1.73h2.233c0.936,0,1.694,0.775,1.694,1.73V16.485z M7.6,10.959c0-0.404-0.321-0.732-0.717-0.732H4.65
		c-0.396,0-0.717,0.328-0.717,0.732v5.526c0,0.404,0.321,0.732,0.717,0.732h2.233c0.396,0,0.717-0.328,0.717-0.732V10.959z"/>
	<path fill="#FF7452" d="M6.133,16.032c0,0.241-0.192,0.437-0.428,0.437H5.583c-0.236,0-0.428-0.195-0.428-0.437v-0.125
		c0-0.241,0.192-0.437,0.428-0.437h0.122c0.236,0,0.428,0.196,0.428,0.437V16.032z"/>
	<path fill="#FF7452" d="M12.262,18.225c-1.216,0-2.523-0.158-2.966-2.041c-0.009-0.038,0.015-0.077,0.015-0.117V9.757
		c0-0.07-0.014-0.139,0.014-0.202l0.083-0.223C9.544,8.9,9.941,8.243,10.582,7.225c0.439-0.696,0.889-1.416,1.029-1.778
		c0.238-0.616,0.237-1.446,0.217-1.714c-0.014-0.188,0.076-0.368,0.235-0.466c0.041-0.025,0.412-0.245,0.892-0.245
		c0.306,0,0.588,0.087,0.839,0.257c0.68,0.462,1.441,1.183,1.291,2.675c-0.047,0.471-0.24,0.912-0.426,1.339
		c-0.122,0.281-0.238,0.546-0.303,0.796c-0.013,0.051-0.015,0.189-0.015,0.305c0.533,0.047,1.07,0.088,1.552,0.088
		c0.304,0,0.552-0.002,0.752-0.005c0.259-0.003,0.438-0.004,0.565,0.001c0.092,0.002,0.179,0.005,0.258,0.016
		c0.53,0.072,1.001,0.351,1.326,0.785c0.325,0.434,0.465,0.971,0.394,1.513c-0.069,0.527-0.337,1.006-0.743,1.333
		c0.179,0.336,0.249,0.723,0.2,1.105c-0.058,0.443-0.267,0.839-0.594,1.128c0,0.007,0.001,0.013,0.001,0.019
		c0.11,0.261,0.148,0.549,0.111,0.836c-0.053,0.41-0.266,0.784-0.582,1.039c0.084,0.21,0.112,0.444,0.08,0.687
		c-0.065,0.496-0.41,0.914-0.884,1.079c-0.287,0.148-0.65,0.179-1.133,0.179l0,0c-0.163,0-0.345-0.003-0.547-0.007
		c-0.246-0.005-0.523-0.01-0.835-0.01c-0.388,0-0.753,0.012-1.105,0.024C12.839,18.215,12.541,18.225,12.262,18.225z M10.288,16.006
		c0.244,1.049,0.793,1.22,2.002,1.22c0.269,0,0.542-0.01,0.847-0.02c0.361-0.012,0.727-0.024,1.13-0.024
		c0.318,0,0.597,0.005,0.849,0.01c0.196,0.004,0.37,0.007,0.527,0.007l0,0c0.141,0,0.57,0,0.698-0.075
		c0.033-0.019,0.068-0.035,0.104-0.046c0.105-0.032,0.227-0.13,0.245-0.271c0.008-0.058,0.008-0.142-0.032-0.21
		c-0.105-0.176-0.133-0.412-0.076-0.635c0.051-0.197,0.163-0.354,0.317-0.442c0.162-0.093,0.269-0.253,0.294-0.439
		c0.014-0.111-0.001-0.221-0.044-0.319c-0.111-0.25-0.139-0.854,0.205-1.112c0.179-0.134,0.293-0.329,0.322-0.551
		c0.025-0.194-0.019-0.391-0.124-0.555c-0.215-0.335-0.097-0.931,0.229-1.159c0.241-0.168,0.4-0.432,0.438-0.725
		c0.036-0.277-0.035-0.552-0.202-0.774c-0.166-0.222-0.407-0.364-0.679-0.401c-0.044-0.006-0.087-0.007-0.13-0.007
		c-0.006,0-0.029,0-0.035,0c-0.114-0.005-0.284-0.003-0.518,0c-0.203,0.002-0.453,0.005-0.762,0.005
		c-0.621,0-1.299-0.061-1.954-0.121L13.79,9.349c-0.131-0.012-0.252-0.077-0.335-0.181c-0.083-0.104-0.122-0.238-0.108-0.371
		c0.014-0.126,0.015-0.262,0.016-0.394c0.001-0.202,0.003-0.392,0.048-0.567c0.085-0.329,0.222-0.643,0.355-0.948
		c0.162-0.371,0.315-0.722,0.346-1.034c0.1-1-0.37-1.409-0.86-1.742c-0.129-0.087-0.296-0.104-0.441-0.075
		c-0.003,0.428-0.05,1.147-0.295,1.778c-0.176,0.453-0.634,1.181-1.12,1.951C10.959,8.46,10.415,9.325,10.32,9.65
		c-0.006,0.02,0.015,0.04,0.006,0.06l-0.038,0.153V16.006z"/>
</g>
</svg>
