<?xml version="1.0" encoding="utf-8"?>
<!-- Generator: Adobe Illustrator 17.0.0, SVG Export Plug-In . SVG Version: 6.00 Build 0)  -->
<!DOCTYPE svg PUBLIC "-//W3C//DTD SVG 1.1//EN" "http://www.w3.org/Graphics/SVG/1.1/DTD/svg11.dtd">
<svg version="1.1" id="Layer_1" xmlns="http://www.w3.org/2000/svg" xmlns:xlink="http://www.w3.org/1999/xlink" x="0px" y="0px"
	 width="14px" height="14px" viewBox="0 0 14 14" enable-background="new 0 0 14 14" xml:space="preserve">
<path fill="#1AAC19" d="M9.99,8.61c0.606-0.872,0.961-1.929,0.961-3.07c0-2.982-2.419-5.401-5.401-5.401S0.15,2.559,0.15,5.541
	s2.419,5.401,5.401,5.401c1.131,0,2.183-0.349,3.048-0.945c0,0,2.897,2.896,3.618,3.617c0.721,0.721,2.158-0.619,1.388-1.388
	S9.99,8.61,9.99,8.61z M5.55,8.978c-1.898,0-3.437-1.539-3.437-3.437S3.652,2.104,5.55,2.104s3.437,1.539,3.437,3.437
	C8.987,7.438,7.448,8.978,5.55,8.978z"/>
</svg>
