<?xml version="1.0" encoding="utf-8"?>
<!-- Generator: Adobe Illustrator 17.0.0, SVG Export Plug-In . SVG Version: 6.00 Build 0)  -->
<!DOCTYPE svg PUBLIC "-//W3C//DTD SVG 1.1//EN" "http://www.w3.org/Graphics/SVG/1.1/DTD/svg11.dtd">
<svg version="1.1" id="图层_1" xmlns="http://www.w3.org/2000/svg" xmlns:xlink="http://www.w3.org/1999/xlink" x="0px" y="0px"
	 width="22px" height="22px" viewBox="0 0 22 22" enable-background="new 0 0 22 22" xml:space="preserve">
<g>
	<path fill="#FFFFFF" d="M19.481,15.865c0,1.003-0.81,1.816-1.809,1.816H4.328c-0.999,0-1.809-0.813-1.809-1.816v-9.73
		c0-1.003,0.81-1.816,1.809-1.816h13.344c0.999,0,1.809,0.813,1.809,1.816V15.865z M18.437,6.135c0-0.424-0.342-0.768-0.765-0.768
		H4.328c-0.423,0-0.765,0.344-0.765,0.768v9.73c0,0.424,0.342,0.768,0.765,0.768h13.344c0.422,0,0.765-0.344,0.765-0.768V6.135z"/>
	<path fill="#FFFFFF" d="M10.781,12.554c-0.058,0-0.117-0.02-0.165-0.059L6.241,8.919C6.129,8.828,6.113,8.663,6.204,8.55
		c0.091-0.112,0.255-0.129,0.367-0.038l4.212,3.443l4.109-3.286c0.113-0.09,0.277-0.071,0.367,0.042
		c0.09,0.113,0.071,0.278-0.042,0.368l-4.274,3.417C10.896,12.535,10.838,12.554,10.781,12.554z"/>
	<path fill="#FFFFFF" d="M7.663,13.38c-0.062,0-0.124-0.022-0.173-0.066c-0.108-0.096-0.117-0.262-0.022-0.37l1.468-1.66
		c0.096-0.108,0.261-0.118,0.369-0.022c0.108,0.096,0.117,0.262,0.022,0.37l-1.468,1.66C7.807,13.35,7.735,13.38,7.663,13.38z"/>
	<path fill="#FFFFFF" d="M14.188,13.352c-0.075,0-0.149-0.032-0.201-0.094l-1.57-1.885c-0.092-0.111-0.078-0.276,0.033-0.369
		c0.111-0.093,0.275-0.078,0.368,0.033l1.57,1.885c0.092,0.111,0.078,0.276-0.033,0.369C14.306,13.332,14.247,13.352,14.188,13.352z
		"/>
</g>
</svg>
