<?xml version="1.0" standalone="no"?><!DOCTYPE svg PUBLIC "-//W3C//DTD SVG 1.1//EN" "http://www.w3.org/Graphics/SVG/1.1/DTD/svg11.dtd"><svg width="14" height="14" viewBox="0 0 14 14" version="1.1" xmlns="http://www.w3.org/2000/svg" xmlns:xlink="http://www.w3.org/1999/xlink"><defs><style type="text/css"><![CDATA[

]]></style></defs><g class="transform-group"><g transform="scale(0.013671875, 0.013671875)"><path d="M778.837324 937.238984c-3.108804 0-6.217608-0.958838-8.857738-2.877537L512.070608 746.986919 254.16163 934.361447c-5.282307 3.837398-12.43624 3.837398-17.7165 0-5.282307-3.837398-7.492648-10.639315-5.474688-16.84976l98.511641-303.177997L71.574129 426.960185c-5.282307-3.837398-7.492648-10.639315-5.473665-16.848737 2.01796-6.209422 7.803733-10.413164 14.332427-10.413164l318.792627 0L497.737158 96.521311c2.01796-6.209422 7.803733-10.413164 14.332427-10.413164s12.31549 4.203742 14.332427 10.413164l98.511641 303.177997 318.792627 0c6.528694 0 12.31549 4.203742 14.332427 10.413164 2.01796 6.208399-0.192382 13.011338-5.474688 16.848737L694.65811 614.334713l98.511641 303.177997c2.01796 6.209422-0.192382 13.011338-5.474688 16.84976C785.054933 936.279123 781.946129 937.238984 778.837324 937.238984z" fill="#fff"></path></g></g></svg>