<?xml version="1.0" encoding="utf-8"?>
<!-- Generator: Adobe Illustrator 19.0.0, SVG Export Plug-In . SVG Version: 6.00 Build 0)  -->
<svg version="1.1" id="图层_1" xmlns="http://www.w3.org/2000/svg" xmlns:xlink="http://www.w3.org/1999/xlink" x="0px" y="0px"
	 viewBox="-292 409.9 22 22" style="enable-background:new -292 409.9 22 22;" xml:space="preserve">
<style type="text/css">
	.st0{fill:#ABABAB;stroke:#ABABAB;stroke-miterlimit:10;}
</style>
<g>
	<g transform="scale(0.015625, 0.015625)">
		<path class="st0" d="M-17717.2,27362.2c-3.1,0-6.2-1-8.9-2.9l-257.9-187.4l-257.9,187.4c-5.3,3.8-12.4,3.8-17.7,0
			c-5.3-3.8-7.5-10.6-5.5-16.8l98.5-303.2l-257.9-187.4c-5.3-3.8-7.5-10.6-5.5-16.8c2-6.2,7.8-10.4,14.3-10.4h318.8l98.5-303.2
			c2-6.2,7.8-10.4,14.3-10.4c6.5,0,12.3,4.2,14.3,10.4l98.5,303.2h318.8c6.5,0,12.3,4.2,14.3,10.4s-0.2,13-5.5,16.8l-257.9,187.4
			l98.5,303.2c2,6.2-0.2,13-5.5,16.8C-17710.9,27361.2-17714.1,27362.2-17717.2,27362.2z"/>
	</g>
</g>
</svg>
