<?xml version="1.0" standalone="no"?><!DOCTYPE svg PUBLIC "-//W3C//DTD SVG 1.1//EN" "http://www.w3.org/Graphics/SVG/1.1/DTD/svg11.dtd"><svg width="14" height="14" viewBox="0 0 14 14" version="1.1" xmlns="http://www.w3.org/2000/svg" xmlns:xlink="http://www.w3.org/1999/xlink"><defs><style type="text/css"><![CDATA[
@font-face { font-family: ifont; src: url("//at.alicdn.com/t/font_1442373896_4754455.eot?#iefix") format("embedded-opentype"), url("//at.alicdn.com/t/font_1442373896_4754455.woff") format("woff"), url("//at.alicdn.com/t/font_1442373896_4754455.ttf") format("truetype"), url("//at.alicdn.com/t/font_1442373896_4754455.svg#ifont") format("svg"); }

]]></style></defs><g class="transform-group"><g transform="scale(0.013671875, 0.013671875)"><path d="M216.039381 259.516592l131.451868 0 0 92.76066L216.039381 352.277252 216.039381 259.516592 216.039381 259.516592zM413.204903 259.516592l131.448798 0 0 92.76066L413.204903 352.277252 413.204903 259.516592 413.204903 259.516592 413.204903 259.516592zM216.039381 414.083923l131.451868 0 0 92.736101L216.039381 506.820024 216.039381 414.083923 216.039381 414.083923zM413.204903 414.083923l131.448798 0 0 92.736101L413.204903 506.820024 413.204903 414.083923 413.204903 414.083923 413.204903 414.083923zM741.842759 414.083923l65.690118 0 0 92.736101-65.690118 0L741.842759 414.083923 741.842759 414.083923zM741.842759 568.650231l65.690118 0 0 92.758614-65.690118 0L741.842759 568.650231 741.842759 568.650231zM216.039381 568.650231l131.451868 0 0 92.758614L216.039381 661.408845 216.039381 568.650231 216.039381 568.650231zM413.204903 568.650231l131.448798 0 0 92.758614L413.204903 661.408845 413.204903 568.650231 413.204903 568.650231 413.204903 568.650231zM939.007257 875.941919l0.688685-570.387805L682.933067 305.554114l0-201.243397L84.615143 104.950284l0 750.873436L51.745525 855.82372l0 52.888558 930.743036 0.565888 0-40.2364L939.007257 875.941919 939.007257 875.941919zM126.646422 869.040742 126.646422 144.5727 640.140449 144.5727l0 724.468043L126.646422 869.040742 126.646422 869.040742zM682.933067 869.040742 682.933067 345.816097l213.969233 0 0 523.224646L682.933067 869.040742 682.933067 869.040742zM682.933067 869.040742" fill="#1aac19"></path></g></g></svg>