<?xml version="1.0" standalone="no"?><!DOCTYPE svg PUBLIC "-//W3C//DTD SVG 1.1//EN" "http://www.w3.org/Graphics/SVG/1.1/DTD/svg11.dtd"><svg width="14" height="14" viewBox="0 0 14 14" version="1.1" xmlns="http://www.w3.org/2000/svg" xmlns:xlink="http://www.w3.org/1999/xlink"><defs><style type="text/css"><![CDATA[
@font-face { font-family: ifont; src: url("//at.alicdn.com/t/font_1442373896_4754455.eot?#iefix") format("embedded-opentype"), url("//at.alicdn.com/t/font_1442373896_4754455.woff") format("woff"), url("//at.alicdn.com/t/font_1442373896_4754455.ttf") format("truetype"), url("//at.alicdn.com/t/font_1442373896_4754455.svg#ifont") format("svg"); }

]]></style></defs><g class="transform-group"><g transform="scale(0.013671875, 0.013671875)"><path d="M511.646959 64.083527c-247.201102 0-447.594131 200.396099-447.594131 447.597201 0 247.200078 200.394053 447.595154 447.594131 447.595154 247.201102 0 447.597201-200.395076 447.597201-447.595154C959.24416 264.479627 758.848061 64.083527 511.646959 64.083527zM511.646959 903.522068c-216.408795 0-391.842363-175.433568-391.842363-391.84134 0-216.410841 175.433568-391.843386 391.842363-391.843386 216.408795 0 391.844409 175.433568 391.844409 391.843386C903.492392 728.089523 728.055754 903.522068 511.646959 903.522068zM762.176876 511.679705 525.548574 511.679705 525.548574 275.136338c0-8.411577-10.041704-15.230889-22.425755-15.230889l-11.211343 0c-12.384052 0-22.422685 6.820336-22.422685 15.230889l0 277.262768c0 3.936659 2.217505 7.513114 5.827729 10.216689 2.619664 3.130294 5.958712 5.012154 9.598612 5.012154l6.967692 0c0.00921 0 0.01842 0.001023 0.028653 0.001023l11.211343 0c0.00921 0 0.01842-0.001023 0.028653-0.001023l259.024381 0c8.411577 0 15.230889-10.021238 15.230889-22.38073l0-11.18883C777.407766 521.698896 770.588453 511.679705 762.176876 511.679705z" fill="#1aac19"></path></g></g></svg>